<?xml version="1.0" standalone="no"?>
<!DOCTYPE svg PUBLIC "-//W3C//DTD SVG 20010904//EN"
 "http://www.w3.org/TR/2001/REC-SVG-20010904/DTD/svg10.dtd">
<svg version="1.0" xmlns="http://www.w3.org/2000/svg"
 width="329.000000pt" height="287.000000pt" viewBox="0 0 329.000000 287.000000"
 preserveAspectRatio="xMidYMid meet">

<g transform="translate(0.000000,287.000000) scale(0.100000,-0.100000)"
fill="#561B88" stroke="none">
<path d="M1073 2305 c-11 -8 -26 -35 -32 -62 -7 -26 -57 -205 -111 -398 -54
-192 -105 -375 -113 -405 -13 -52 -15 -55 -43 -53 -16 1 -93 7 -171 13 -78 7
-147 9 -152 5 -9 -5 -17 -93 -8 -96 1 -1 78 -9 171 -18 l169 -16 1 -131 1
-131 -161 -15 c-89 -9 -167 -19 -173 -22 -6 -4 -11 -27 -11 -52 l0 -44 50 0
c44 0 202 13 287 24 32 5 33 3 75 -82 99 -204 309 -343 557 -369 51 -5 65 -3
81 12 49 44 11 89 -82 98 -134 12 -297 92 -379 185 -42 48 -99 138 -99 158 0
7 25 14 58 17 31 4 85 9 120 13 51 5 66 11 78 30 18 26 11 60 -15 73 -10 6
-64 5 -143 -3 -124 -12 -127 -12 -132 8 -8 31 -7 199 2 211 5 7 48 8 135 1
125 -9 129 -9 150 13 20 20 21 23 7 48 -18 32 -43 39 -174 48 l-98 7 6 37 c9
55 210 761 217 761 3 0 70 -70 148 -155 l142 -155 268 0 269 0 142 155 c78 85
145 155 149 155 4 0 13 -24 20 -52 8 -29 56 -201 107 -381 52 -181 94 -336 94
-346 0 -16 -16 -19 -125 -28 -70 -6 -132 -16 -140 -23 -20 -16 -19 -64 0 -80
13 -10 44 -11 148 -4 73 6 134 8 137 6 3 -2 5 -55 5 -117 0 -62 -2 -115 -5
-118 -3 -2 -61 2 -130 9 -107 10 -128 10 -147 -2 -26 -16 -31 -65 -10 -82 6
-6 66 -16 132 -22 66 -6 122 -13 123 -15 2 -2 -11 -32 -29 -67 -38 -70 -112
-151 -179 -193 -63 -40 -186 -83 -261 -90 -35 -4 -74 -14 -86 -21 -28 -18 -30
-55 -3 -79 17 -15 30 -17 87 -11 140 14 303 85 407 177 60 53 139 164 162 230
15 42 22 49 39 45 11 -2 91 -10 177 -17 128 -11 159 -10 172 0 20 16 21 64 2
80 -11 9 -253 40 -322 41 -19 0 -20 5 -20 134 l1 134 155 12 c98 7 163 17 178
26 27 18 29 55 3 78 -18 17 -31 17 -163 7 -79 -6 -155 -13 -169 -16 -24 -4
-28 0 -34 33 -4 20 -40 154 -81 297 -42 143 -92 326 -113 406 -22 80 -44 156
-50 167 -13 25 -50 37 -83 29 -13 -4 -95 -85 -183 -181 l-160 -176 -215 0
-216 0 -121 133 c-211 231 -207 227 -239 227 -16 0 -39 -7 -51 -15z"/>
<path d="M1919 1501 c-64 -64 -16 -171 77 -171 16 0 39 13 61 35 32 32 35 39
30 78 -12 85 -107 118 -168 58z"/>
<path d="M1619 1272 c-41 -36 -46 -98 -11 -135 19 -20 22 -34 22 -99 0 -75 0
-76 -30 -88 -49 -20 -116 -8 -154 29 -50 48 -106 38 -106 -19 0 -32 59 -92
112 -115 52 -21 130 -19 188 6 45 19 50 20 80 4 87 -45 197 -27 272 45 53 51
58 70 28 100 -28 28 -43 25 -96 -21 -45 -39 -50 -41 -100 -37 -75 6 -84 17
-84 101 0 59 4 75 22 94 36 38 31 97 -10 134 -43 39 -90 39 -133 1z"/>
</g>
</svg>
