<?xml version="1.0" standalone="no"?>
<!DOCTYPE svg PUBLIC "-//W3C//DTD SVG 20010904//EN"
 "http://www.w3.org/TR/2001/REC-SVG-20010904/DTD/svg10.dtd">
 
<svg version="1.0" xmlns="http://www.w3.org/2000/svg"
 width="374.000000pt" height="285.000000pt" viewBox="0 0 374.000000 285.000000"
 preserveAspectRatio="xMidYMid meet">

<g transform="translate(0.000000,285.000000) scale(0.100000,-0.100000)"
fill="#561B88" stroke="none">
<path d="M1799 2330 c-68 -11 -174 -50 -225 -83 -36 -24 -43 -25 -92 -16 -102
19 -212 -19 -283 -98 -88 -98 -284 -414 -400 -646 -140 -278 -176 -393 -167
-527 9 -125 98 -245 226 -306 46 -22 75 -29 148 -32 115 -5 171 12 261 79 l64
49 42 -35 c70 -61 189 -105 281 -105 52 0 130 27 187 65 52 36 52 36 73 16 12
-11 48 -32 81 -48 120 -55 275 -30 403 67 l53 41 39 -34 c22 -19 63 -47 92
-63 50 -27 60 -29 163 -29 102 0 114 2 175 31 92 44 153 102 192 182 31 63 33
73 32 167 -1 127 -24 196 -143 440 -124 252 -323 577 -424 691 -65 75 -178
114 -278 96 -49 -9 -55 -8 -123 29 -115 62 -256 88 -377 69z m210 -105 c176
-47 314 -180 365 -354 14 -47 16 -126 16 -547 l0 -492 -41 -37 c-53 -48 -120
-76 -195 -82 -71 -6 -116 6 -173 48 l-41 29 0 85 c0 79 1 85 20 85 29 0 76 26
84 45 37 98 -73 172 -139 93 -21 -25 -25 -38 -20 -65 5 -30 4 -33 -20 -33
l-25 0 0 -105 0 -105 -41 -29 c-56 -41 -101 -54 -172 -49 -72 5 -155 39 -211
88 l-37 33 3 501 3 501 27 69 c63 163 187 276 351 321 68 18 178 18 246 0z
m-602 -132 c-19 -27 -46 -72 -61 -100 -53 -106 -56 -137 -56 -665 l0 -486 -42
-37 c-24 -20 -65 -49 -93 -63 -104 -55 -259 -28 -348 62 -60 59 -80 109 -79
193 1 89 17 147 82 294 136 306 411 753 498 812 46 31 58 35 100 36 l34 1 -35
-47z m1031 27 c55 -25 85 -59 188 -212 172 -258 372 -641 409 -784 21 -81 19
-189 -4 -239 -25 -54 -95 -119 -155 -146 -28 -12 -78 -24 -112 -27 -55 -4 -70
-1 -126 25 -35 17 -82 47 -105 68 l-43 37 0 471 c0 514 -3 550 -57 670 -15 34
-43 81 -60 105 -18 23 -33 44 -33 47 0 12 59 3 98 -15z"/>
<path d="M2129 1581 c-32 -33 -36 -58 -14 -100 38 -74 155 -43 155 41 -1 37
-14 59 -47 76 -35 19 -63 14 -94 -17z"/>
</g>
</svg>
