<?xml version="1.0" standalone="no"?>
<!DOCTYPE svg PUBLIC "-//W3C//DTD SVG 20010904//EN"
 "http://www.w3.org/TR/2001/REC-SVG-20010904/DTD/svg10.dtd">
<svg version="1.0" xmlns="http://www.w3.org/2000/svg"
 width="351.000000pt" height="322.000000pt" viewBox="0 0 351.000000 322.000000"
 preserveAspectRatio="xMidYMid meet">

<g transform="translate(0.000000,322.000000) scale(0.100000,-0.100000)"
fill="#561B88" stroke="none">
<path d="M1315 2867 c-27 -13 -70 -45 -93 -71 -212 -231 -79 -662 203 -660 80
1 141 31 204 100 162 177 121 505 -76 621 -66 39 -170 43 -238 10z m170 -96
c90 -41 138 -131 139 -256 0 -67 -4 -90 -27 -140 -33 -71 -50 -91 -99 -116
-73 -37 -151 -19 -210 50 -114 133 -79 389 63 459 53 27 82 27 134 3z"/>
<path d="M2083 2865 c-177 -90 -248 -340 -154 -540 36 -79 77 -124 143 -160
43 -24 65 -29 118 -29 85 0 143 28 209 100 139 152 133 423 -14 569 -59 60
-98 78 -180 82 -61 4 -77 1 -122 -22z m172 -94 c141 -65 186 -275 92 -432 -65
-109 -185 -132 -270 -51 -133 125 -107 406 44 480 53 27 82 27 134 3z"/>
<path d="M776 2205 c-90 -35 -163 -119 -197 -229 -32 -102 -24 -231 20 -320
119 -242 384 -256 518 -29 64 109 70 278 16 395 -59 127 -139 188 -251 194
-43 3 -81 -1 -106 -11z m135 -96 c80 -27 144 -124 155 -238 12 -113 -48 -246
-130 -285 -65 -31 -149 -12 -203 46 -62 66 -88 201 -59 302 41 140 134 209
237 175z"/>
<path d="M2645 2197 c-99 -48 -175 -158 -195 -284 -13 -76 -12 -86 3 -107 15
-20 62 -25 80 -7 6 6 14 42 18 81 22 202 186 301 313 189 129 -112 115 -383
-23 -471 -25 -15 -59 -28 -76 -28 -60 0 -87 -65 -41 -95 18 -12 35 -14 63 -9
134 24 238 145 266 310 21 125 -23 273 -108 357 -58 58 -106 80 -185 84 -53 3
-74 -1 -115 -20z"/>
<path d="M1710 2035 c-76 -21 -180 -95 -239 -169 -73 -92 -430 -726 -458 -814
-90 -282 82 -561 368 -597 73 -9 155 7 253 51 45 20 93 41 107 46 21 9 40 5
105 -20 160 -62 333 -90 425 -71 170 36 311 172 349 338 17 72 8 191 -20 266
-26 70 -362 671 -426 761 -124 176 -299 254 -464 209z m218 -125 c105 -53 148
-111 359 -481 104 -184 200 -361 213 -394 17 -44 24 -82 24 -140 1 -72 -3 -88
-32 -147 -36 -73 -87 -124 -161 -160 -64 -32 -212 -32 -325 0 -44 13 -86 27
-94 31 -11 6 15 24 94 63 121 62 144 89 109 128 -10 11 -26 20 -36 20 -11 0
-119 -50 -241 -111 -277 -139 -329 -159 -413 -159 -95 0 -167 30 -236 99 -76
77 -102 146 -97 256 5 102 12 116 241 523 127 226 198 341 235 382 108 120
236 151 360 90z"/>
</g>
</svg>
