<?xml version="1.0" standalone="no"?>
<!DOCTYPE svg PUBLIC "-//W3C//DTD SVG 20010904//EN"
 "http://www.w3.org/TR/2001/REC-SVG-20010904/DTD/svg10.dtd">
<svg version="1.0" xmlns="http://www.w3.org/2000/svg" 
 width="128.000000pt" height="128.000000pt" viewBox="0 0 128.000000 128.000000"
 preserveAspectRatio="xMidYMid meet" >

<g transform="translate(0.000000,128.000000) scale(0.100000,-0.100000)" fill='#561B88' stroke="none">
<path d="M610 1237 c-19 -5 -46 -16 -60 -26 -14 -10 -44 -23 -67 -29 -98 -29
-135 -148 -82 -265 10 -21 10 -30 1 -39 -7 -7 -12 -31 -12 -54 0 -32 5 -47 21
-58 11 -8 32 -38 46 -68 13 -29 33 -63 44 -74 17 -18 19 -28 12 -55 -8 -31
-15 -36 -72 -55 -35 -12 -66 -26 -70 -31 -3 -6 -26 -13 -50 -16 -62 -8 -119
-51 -153 -116 -28 -53 -28 -58 -26 -185 l3 -131 495 0 495 0 3 129 c2 122 1
133 -23 183 -15 29 -42 65 -60 79 -35 26 -119 57 -129 47 -3 -3 -13 0 -22 8
-9 8 -42 23 -73 34 -46 17 -57 25 -64 50 -7 26 -3 38 27 84 20 29 36 59 36 67
0 7 14 27 30 44 35 35 41 91 13 122 -14 15 -14 24 -5 57 20 64 15 150 -11 196
-41 73 -163 124 -247 102z m136 -51 c84 -39 114 -96 100 -191 l-7 -45 -38 40
c-33 35 -44 40 -82 40 -59 0 -109 15 -154 45 l-36 25 -28 -20 c-26 -18 -37
-35 -68 -110 -10 -25 -11 -24 -18 13 -17 87 15 147 89 169 23 7 56 23 75 35
44 30 101 30 167 -1z m-57 -186 c31 0 63 -6 72 -13 21 -16 49 -71 49 -97 0
-13 9 -24 25 -30 15 -6 25 -17 25 -29 0 -19 -24 -51 -39 -51 -4 0 -13 -19 -20
-42 -17 -56 -37 -84 -78 -109 -79 -49 -194 -13 -234 74 -10 23 -19 49 -19 58
0 9 -11 21 -25 27 -31 14 -33 54 -4 73 16 11 21 27 23 67 2 36 11 64 29 91
l26 39 57 -29 c42 -21 71 -29 113 -29z m-6 -423 l44 9 11 -40 c13 -51 5 -127
-16 -143 -16 -13 -119 -17 -158 -7 -17 5 -23 16 -27 56 -4 28 -2 70 4 93 l11
42 44 -10 c29 -7 58 -7 87 0z m-160 -259 c14 -95 25 -173 24 -175 -1 -1 -29
41 -61 93 -57 92 -58 96 -40 115 17 19 17 21 -5 66 -12 25 -20 47 -19 49 6 5
52 23 64 23 6 1 21 -70 37 -171z m306 161 c17 -6 31 -13 31 -15 0 -2 -10 -24
-22 -48 -21 -43 -21 -46 -4 -65 16 -18 14 -23 -44 -117 -33 -54 -60 -94 -60
-89 0 6 9 64 19 130 11 66 22 141 26 168 7 51 8 52 54 36z m-424 -69 c14 -27
14 -32 -1 -55 -16 -24 -14 -27 64 -155 l81 -130 -191 0 -190 0 3 118 c4 130
19 170 82 214 29 20 30 21 23 2 -4 -10 -10 -37 -13 -59 -4 -22 -17 -53 -29
-68 -43 -51 -25 -148 24 -133 28 9 29 32 2 39 -46 12 -6 97 45 97 27 0 65 -31
65 -53 0 -7 -5 -18 -11 -24 -8 -8 -5 -14 10 -23 41 -21 53 12 27 74 -10 24
-26 39 -56 52 -41 18 -42 20 -37 57 10 76 72 104 102 47z m539 3 c7 -16 17
-43 21 -61 6 -28 3 -37 -19 -57 -47 -43 -24 -115 37 -115 38 0 50 7 66 38 15
28 7 56 -23 79 -14 12 -25 33 -28 58 -3 22 -10 49 -14 60 -8 19 -7 19 27 -2
19 -12 48 -40 64 -63 29 -40 30 -47 34 -161 l3 -119 -192 0 -192 0 15 23 c8
13 45 72 82 131 64 104 66 109 49 127 -16 18 -16 22 -1 54 21 43 51 46 71 8z
m-239 -195 l-21 -143 -45 -3 -45 -3 -17 123 c-10 68 -21 133 -24 146 -5 22 -3
22 84 22 l89 0 -21 -142z m305 47 c19 -23 8 -50 -20 -50 -19 0 -26 6 -28 24
-5 35 26 53 48 26z"/>
</g>
</svg>
