<?xml version="1.0" standalone="no"?>
<!DOCTYPE svg PUBLIC "-//W3C//DTD SVG 20010904//EN"
 "http://www.w3.org/TR/2001/REC-SVG-20010904/DTD/svg10.dtd">
<svg version="1.0" xmlns="http://www.w3.org/2000/svg" fill='#561B88'
 width="512.000000pt" height="512.000000pt" viewBox="0 0 512.000000 512.000000"
 preserveAspectRatio="xMidYMid meet">

<g transform="translate(0.000000,512.000000) scale(0.100000,-0.100000)"
fill='#561B88' stroke="none">
<path d="M2511 5108 c-13 -7 -34 -26 -45 -41 -20 -27 -21 -41 -24 -376 -3
-389 0 -410 57 -448 43 -29 79 -29 122 0 55 37 58 57 58 430 1 357 -1 380 -47
420 -26 24 -90 32 -121 15z"/>
<path d="M4325 4420 c-37 -15 -503 -493 -510 -522 -14 -57 24 -121 81 -137 65
-18 94 3 346 256 199 200 237 244 243 275 17 91 -74 164 -160 128z"/>
<path d="M694 4366 c-45 -45 -47 -96 -5 -152 34 -46 435 -444 471 -468 31 -20
72 -21 110 -1 42 22 60 53 60 105 l0 45 -253 252 -252 253 -49 0 c-41 0 -53
-5 -82 -34z"/>
<path d="M2377 4000 c-340 -43 -611 -167 -833 -382 -241 -233 -386 -546 -423
-917 -7 -63 -11 -427 -11 -950 l0 -847 -90 -12 c-269 -36 -485 -193 -610 -441
-42 -84 -70 -198 -73 -293 -2 -83 14 -120 64 -145 19 -10 484 -13 2159 -13
1675 0 2140 3 2159 13 50 25 66 62 64 142 -11 370 -304 686 -683 737 l-90 12
0 847 c0 523 -4 887 -11 950 -69 681 -507 1167 -1156 1284 -104 19 -369 27
-466 15z m432 -246 c434 -76 775 -379 905 -806 60 -194 59 -175 63 -1150 l4
-898 -1221 0 -1221 0 4 903 c4 877 4 905 25 1001 12 55 31 129 43 165 192 580
757 897 1398 785z m1326 -3105 c146 -33 295 -154 359 -290 19 -41 38 -86 42
-101 l6 -28 -1982 0 -1982 0 6 27 c4 16 24 64 46 109 71 145 224 261 380 288
96 16 3054 12 3125 -5z"/>
<path d="M2814 3416 c-26 -26 -34 -42 -34 -70 0 -65 22 -92 113 -135 100 -48
177 -115 246 -215 114 -165 191 -408 191 -603 0 -79 19 -127 62 -153 41 -25
74 -25 115 0 47 28 55 52 54 154 -6 439 -240 870 -556 1022 -95 46 -145 46
-191 0z"/>
<path d="M75 2666 c-50 -22 -70 -52 -70 -106 0 -54 20 -84 72 -106 43 -19 690
-19 743 -1 40 14 80 67 80 107 0 40 -40 93 -80 107 -52 18 -704 17 -745 -1z"/>
<path d="M4300 2667 c-40 -14 -80 -67 -80 -107 0 -40 40 -93 80 -107 44 -15
678 -18 731 -3 56 16 84 52 84 110 0 55 -20 84 -72 106 -43 19 -690 19 -743 1z"/>
</g>
</svg>
