<?xml version="1.0" standalone="no"?>
<!DOCTYPE svg PUBLIC "-//W3C//DTD SVG 20010904//EN"
 "http://www.w3.org/TR/2001/REC-SVG-20010904/DTD/svg10.dtd">
<svg version="1.0" xmlns="http://www.w3.org/2000/svg"
 width="512.000000pt" height="512.000000pt" viewBox="0 0 512.000000 512.000000"
 preserveAspectRatio="xMidYMid meet">

<g transform="translate(0.000000,512.000000) scale(0.100000,-0.100000)"
fill="#000000" stroke="none">
<path d="M4364 4869 c-233 -155 -330 -232 -426 -343 -122 -141 -205 -275 -274
-444 -23 -57 -46 -108 -51 -112 -4 -5 -132 -56 -283 -115 -291 -113 -413 -170
-513 -237 -52 -35 -971 -733 -1243 -945 l-81 -63 -34 66 c-41 81 -139 188
-212 232 -104 63 -188 85 -317 86 -135 1 -206 -15 -326 -75 -309 -152 -497
-508 -430 -811 52 -235 233 -415 466 -464 195 -41 430 24 600 167 134 113
1856 1427 1926 1470 81 50 214 113 221 105 8 -8 -80 -183 -129 -256 -38 -56
-1317 -1729 -1466 -1918 -171 -216 -208 -493 -96 -722 46 -93 160 -210 251
-258 79 -41 198 -72 280 -72 125 0 273 42 390 111 72 43 207 175 258 253 150
230 162 508 33 723 -44 73 -148 170 -229 213 l-66 35 464 605 c485 632 580
763 634 877 18 37 83 196 144 353 l111 284 120 51 c132 57 227 109 324 181
180 131 272 235 459 518 144 217 148 227 94 274 -19 17 -34 22 -54 18 -15 -3
-174 -103 -353 -222 -180 -119 -329 -214 -333 -211 -3 4 92 153 211 333 119
179 219 338 222 353 4 20 -1 35 -18 54 -47 54 -57 50 -274 -94z m-90 -261 c-5
-7 -51 -79 -104 -159 -53 -80 -116 -189 -140 -242 l-44 -96 -78 -30 c-77 -29
-79 -29 -72 -8 11 37 80 158 133 233 64 92 148 182 236 256 74 61 81 66 69 46z
m315 -370 c-64 -83 -217 -225 -308 -286 -93 -62 -247 -142 -274 -142 -8 0 -18
12 -22 27 -3 15 -15 39 -26 54 -11 15 -16 30 -12 32 5 3 60 25 124 50 161 63
232 100 399 211 80 53 147 96 148 96 2 0 -11 -19 -29 -42z m-1060 -535 c6 -27
13 -54 14 -62 1 -9 -53 -36 -164 -80 -187 -75 -292 -132 -429 -234 -70 -53
-1338 -1020 -1429 -1091 -12 -9 -13 -7 -8 14 4 14 10 62 14 107 l6 82 650 498
c712 545 726 556 842 615 75 39 457 195 481 197 6 1 16 -20 23 -46z m149 -385
c-90 -232 -132 -321 -192 -410 -23 -35 -268 -358 -544 -719 l-502 -656 -82 -7
c-46 -3 -94 -9 -108 -13 l-25 -7 30 40 c16 21 261 343 545 714 284 371 534
700 557 730 69 95 133 214 188 351 l53 132 54 23 c29 12 65 23 79 23 l27 1
-80 -202z m-2679 -489 c214 -34 361 -208 364 -429 2 -188 -99 -375 -267 -495
-79 -56 -136 -80 -239 -101 -320 -65 -588 203 -525 525 54 274 308 498 578
510 14 0 54 -4 89 -10z m1469 -1469 c92 -15 165 -52 233 -116 111 -107 158
-261 126 -417 -26 -125 -77 -218 -177 -318 -98 -99 -188 -149 -310 -175 -186
-39 -371 30 -468 176 -58 86 -76 148 -77 255 0 114 29 209 95 309 100 150 240
248 400 281 82 17 101 17 178 5z"/>
<path d="M835 2667 c-194 -50 -354 -245 -355 -433 -1 -155 128 -284 284 -284
144 1 314 108 388 246 124 229 23 463 -205 479 -34 3 -84 -1 -112 -8z m162
-172 c105 -69 31 -274 -127 -355 -166 -85 -283 35 -199 203 67 134 234 212
326 152z"/>
<path d="M2322 1200 c-161 -34 -303 -168 -353 -332 -73 -240 116 -439 356
-374 81 21 155 65 215 125 227 230 158 561 -121 585 -30 3 -73 1 -97 -4z m145
-175 c105 -69 32 -276 -125 -354 -206 -103 -312 90 -151 273 79 90 205 127
276 81z"/>
</g>
</svg>
