<?xml version="1.0" standalone="no"?>
<!DOCTYPE svg PUBLIC "-//W3C//DTD SVG 20010904//EN"
 "http://www.w3.org/TR/2001/REC-SVG-20010904/DTD/svg10.dtd">
<svg version="1.0" xmlns="http://www.w3.org/2000/svg" fill='#561B88'
 width="512pt" height="512.000000pt" viewBox="0 0 512.000000 512.000000"
 preserveAspectRatio="xMidYMid meet">

<g transform="translate(0.000000,512.000000) scale(0.100000,-0.100000)"
fill='#561B88' stroke="none">
<path d="M4430 4565 l-535 -535 -125 0 -125 0 -110 -110 -110 -110 -170 170
-170 170 -1060 -1060 -1060 -1060 -127 127 -128 128 -185 -185 -185 -185 250
-250 c137 -138 250 -255 250 -260 0 -6 -85 -96 -190 -200 l-190 -189 -43 42
-42 42 -188 -188 -187 -187 353 -353 c193 -193 357 -352 362 -352 13 0 365
352 365 365 0 5 -17 26 -37 47 l-37 38 194 195 195 195 252 -252 253 -253 185
185 185 185 -127 127 -128 128 1060 1060 1060 1060 -168 168 -167 167 110 110
110 110 0 130 0 130 537 537 538 538 -55 55 c-30 30 -59 55 -65 55 -5 0 -251
-241 -545 -535z m-1535 -2465 l-1000 -1000 -405 405 -405 405 152 152 153 153
183 -183 182 -182 60 60 60 60 -183 183 -182 182 152 153 153 152 267 -267
268 -268 60 60 60 60 -267 267 -268 268 153 152 152 153 183 -183 182 -182 60
60 60 60 -183 183 -182 182 150 150 150 150 263 -263 c144 -144 267 -262 272
-262 6 0 35 25 65 55 l55 55 -263 263 c-144 144 -262 267 -262 272 0 5 66 76
147 157 l148 148 405 -405 405 -405 -1000 -1000z m955 1692 l0 -67 -85 -85
-85 -85 -67 68 -68 67 85 85 85 85 67 0 68 0 0 -68z m-2477 -2410 l657 -657
-65 -65 -65 -65 -660 660 -660 660 62 62 c34 35 65 63 68 63 3 0 301 -296 663
-658z m-248 -252 l150 -150 -195 -195 -195 -195 -152 152 -153 153 192 192
c106 106 195 193 198 193 3 0 73 -68 155 -150z m-285 -745 c0 -13 -112 -125
-125 -125 -6 0 -114 105 -242 232 l-233 233 67 67 68 68 232 -232 c128 -128
233 -238 233 -243z"/>
<path d="M4638 4093 c-74 -76 -145 -157 -157 -181 -85 -166 -19 -361 149 -441
48 -23 68 -26 155 -26 87 0 106 3 149 25 168 86 234 294 143 450 -20 34 -285
310 -297 310 -4 0 -67 -62 -142 -137z m219 -175 c99 -100 115 -154 70 -232
-61 -107 -243 -102 -297 9 -24 50 -25 74 -5 123 14 32 139 172 155 172 3 0 38
-33 77 -72z"/>
</g>
</svg>
