<svg xmlns="http://www.w3.org/2000/svg" fill='#561B88' width="512" height="512" id="vaccine">
<g fill="#000000" stroke="none">
<path  d="M60.726 3.274a.935.935 0 0 0-1.322 0l-7.59 7.589-.641-.641a.934.934 0 0 0-1.254-.063l-4.139 3.387-.703-.704c-.353-.352-.974-.351-1.323 0l-3.74 3.74a2.897 2.897 0 0 0-1.855-.45c-.823.073-1.619.455-2.24 1.076L20.021 33.107l-.428-.428c-.813-.813-1.849-1.28-2.839-1.28-.718 0-1.368.256-1.833.721l-.698.698c-1.15 1.152-.904 3.204.562 4.671l3.03 3.03-9.368 9.368-.663-.663c-.969-.969-2.638-1.016-3.558-.098l-.536.536a2.37 2.37 0 0 0-.688 1.8 2.65 2.65 0 0 0 .785 1.759l6.992 6.991c.499.5 1.18.788 1.868.788.645 0 1.244-.245 1.688-.69l.536-.535c.953-.954.909-2.55-.098-3.559l-.663-.663 9.369-9.368 3.029 3.03c.813.814 1.848 1.281 2.839 1.281.718 0 1.369-.256 1.833-.72l.697-.697c1.152-1.152.906-3.205-.56-4.672l-.428-.427 4.147-4.147h.001l.001-.001 8.686-8.685 3.063-3.064c1.175-1.175 1.402-2.901.626-4.095l3.741-3.74a.931.931 0 0 0 0-1.323l-.705-.705 3.388-4.136a.935.935 0 0 0-.063-1.254l-.643-.642 7.59-7.589a.932.932 0 0 0 .005-1.325zM13.55 58.452l-.535.535a.508.508 0 0 1-.366.142.786.786 0 0 1-.546-.239l-6.991-6.992a.785.785 0 0 1-.239-.517.512.512 0 0 1 .142-.396l.535-.535a.51.51 0 0 1 .366-.142.79.79 0 0 1 .546.239l4.464 4.464 1.203 1.204h.001l1.323 1.323c.274.275.318.693.097.914zm-.76-4.222-1.511-1.51-1.51-1.51 9.367-9.368 1.512 1.511 1.51 1.51-9.368 9.367zm17.768-6.474-.698.697c-.143.143-.356.172-.51.172-.483 0-1.063-.281-1.516-.733L16.107 36.167c-.739-.74-.906-1.681-.561-2.026l.697-.697c.143-.143.356-.172.51-.172.483 0 1.064.281 1.517.732l11.726 11.727c.74.739.906 1.679.562 2.025zm14.911-20.997-2.402 2.403-2.002-2.002a.934.934 0 1 0-1.323 1.323l2.002 2.002-3.021 3.02-2.001-2.002a.936.936 0 0 0-1.323 1.323l2.002 2.002-3.021 3.021-2.003-2.002a.936.936 0 0 0-1.322 1.323l2.002 2.002-3.486 3.486-8.227-8.227 15.897-15.898c.307-.307.7-.501 1.081-.535.189-.018.544-.004.805.256l.271.27 6.079 6.081c.003.002.007.003.01.006l.262.262c.434.435.306 1.299-.28 1.886zm.67-4.141-4.758-4.756 3.034-3.035.642.641 3.475 3.475.003.002.64.64-3.036 3.033zm2.985-5.729-2.014-2.012 3.338-2.732 1.408 1.408-2.732 3.336zm2.603 21.659h-.679l-.578-.343a4.64 4.64 0 0 0-3.539-.532 4.647 4.647 0 0 0-2.882 2.134l-5.772 9.627a4.687 4.687 0 0 0 1.611 6.417l1.601.964a4.659 4.659 0 0 0 2.4.667c.707 0 1.403-.178 2.048-.495a4.668 4.668 0 0 0 3.919 2.141h1.871a4.683 4.683 0 0 0 4.678-4.677V43.226a4.685 4.685 0 0 0-4.678-4.678zm2.806 4.678v4.678h-7.484v-4.678a2.81 2.81 0 0 1 2.807-2.806h1.871a2.808 2.808 0 0 1 2.806 2.806zm-8.88-2.457c.28-.468.684-.832 1.161-1.067-.993.858-1.637 2.112-1.637 3.524v2.707l-1.927-1.157 2.403-4.007zm-3.201 14.443-1.601-.964a2.815 2.815 0 0 1-.971-3.853l2.408-4.016 2.889 1.735v6.337c0 .271.036.534.081.792a2.777 2.777 0 0 1-2.806-.031zm9.275 2.046h-1.871a2.81 2.81 0 0 1-2.807-2.807v-4.677h7.484v4.677a2.81 2.81 0 0 1-2.806 2.807z"></path>
</g>
</svg>