<svg xmlns="http://www.w3.org/2000/svg" viewBox="0 0 329.09 329.09"><defs><style>.cls-1{fill:#ff7718;stroke:#fff;stroke-miterlimit:10;stroke-width:10px;}.cls-2{fill:#fff;}</style></defs><g id="Layer_2" data-name="Layer 2"><g id="Layer_1-2" data-name="Layer 1"><circle class="cls-1" cx="164.54" cy="164.54" r="159.54"/><path class="cls-2" d="M168,105.8a54.86,54.86,0,1,0,54.62,54.86A54.66,54.66,0,0,0,168,105.8Zm0,90.53a35.67,35.67,0,1,1,35.51-35.67A35.66,35.66,0,0,1,168,196.33Zm69.59-92.77a12.74,12.74,0,1,1-12.74-12.8A12.73,12.73,0,0,1,237.57,103.56Zm36.18,13c-.81-17.14-4.71-32.32-17.21-44.83S229,55.29,211.9,54.43c-17.58-1-70.3-1-87.89,0-17,.81-32.13,4.72-44.63,17.23S63,99.36,62.17,116.5c-1,17.66-1,70.61,0,88.28.81,17.14,4.71,32.32,17.21,44.83S107,266,124,266.9c17.59,1,70.31,1,87.89,0,17.07-.81,32.19-4.73,44.64-17.29s16.35-27.69,17.21-44.83c1-17.67,1-70.57,0-88.24ZM251,223.74a36.1,36.1,0,0,1-20.25,20.34c-14,5.58-47.3,4.29-62.8,4.29s-48.82,1.24-62.79-4.29a36,36,0,0,1-20.25-20.34c-5.56-14.09-4.28-47.51-4.28-63.08s-1.23-49,4.28-63.07a36,36,0,0,1,20.25-20.34c14-5.59,47.3-4.3,62.79-4.3s48.82-1.24,62.8,4.3A36,36,0,0,1,251,97.59c5.56,14.08,4.27,47.51,4.27,63.07S256.59,209.7,251,223.74Z"/></g></g></svg>