<svg xmlns="http://www.w3.org/2000/svg" viewBox="0 0 242.51 242.51"><defs><style>.cls-1{fill:#ff7718;stroke:#fff;stroke-miterlimit:10;stroke-width:10px;}.cls-2{fill:#fffff5;}</style></defs><g id="Layer_2" data-name="Layer 2"><g id="Layer_1-2" data-name="Layer 1"><circle class="cls-1" cx="121.25" cy="121.25" r="116.25"/><path class="cls-2" d="M180.84,83.64c.09,1.64.09,3.28.09,4.92,0,50-30.93,107.69-87.47,107.69-17.41,0-33.59-6.21-47.21-17a52.11,52.11,0,0,0,7.43.47c14.37,0,27.6-6,38.16-16.17C78.33,163.21,67,152.31,63.1,137.31a31.79,31.79,0,0,0,5.81.59A26.8,26.8,0,0,0,77,136.61c-14.09-3.52-24.65-18.75-24.65-37.15V99a26.71,26.71,0,0,0,13.89,4.8C58,97,52.54,85.4,52.54,72.27a44.44,44.44,0,0,1,4.18-19.1c15.14,23,37.89,38,63.39,39.61a52.83,52.83,0,0,1-.76-8.67c0-20.86,13.71-37.86,30.74-37.86,8.86,0,16.85,4.58,22.47,12a54.31,54.31,0,0,0,19.51-9.14c-2.29,8.79-7.14,16.17-13.52,20.86a52.76,52.76,0,0,0,17.7-5.86,76.32,76.32,0,0,1-15.41,19.57Z"/></g></g></svg>