<svg xmlns="http://www.w3.org/2000/svg" viewBox="0 0 229.9 229.9"><defs><style>.cls-1{fill:#ff7718;stroke:#fff;stroke-miterlimit:10;stroke-width:10px;}.cls-2{fill:#fff;}</style></defs><g id="Layer_2" data-name="Layer 2"><g id="Layer_1-2" data-name="Layer 1"><circle class="cls-1" cx="114.95" cy="114.95" r="109.95"/><path class="cls-2" d="M186.89,84.28c-1.73-5.5-6.81-9.83-13.27-11.3C161.91,70.31,115,70.31,115,70.31s-47,0-58.67,2.67c-6.46,1.47-11.55,5.8-13.27,11.3-3.14,10-3.14,30.76-3.14,30.76s0,20.79,3.14,30.76c1.72,5.5,6.81,9.65,13.27,11.12C68,159.59,115,159.59,115,159.59s47,0,58.67-2.67c6.46-1.47,11.54-5.62,13.27-11.12C190,135.83,190,115,190,115S190,94.25,186.89,84.28Zm-87.3,49.64V96.16L138.84,115,99.59,133.92Z"/></g></g></svg>