<?xml version="1.0" standalone="no"?>
<!DOCTYPE svg PUBLIC "-//W3C//DTD SVG 20010904//EN"
 "http://www.w3.org/TR/2001/REC-SVG-20010904/DTD/svg10.dtd">
<svg version="1.0" xmlns="http://www.w3.org/2000/svg"
 width="256.000000pt" height="256.000000pt" viewBox="0 0 256.000000 256.000000"
 preserveAspectRatio="xMidYMid meet">

<g transform="translate(0.000000,256.000000) scale(0.100000,-0.100000)"
fill="#000000" stroke="none">
<path d="M1130 2554 c-129 -25 -251 -97 -325 -192 -40 -52 -44 -77 -14 -93 19
-10 28 -3 87 59 106 111 197 152 340 152 90 0 161 -19 237 -65 49 -30 67 -35
118 -35 107 0 192 -62 216 -156 14 -53 15 -334 2 -334 -6 0 -17 12 -26 28 -21
34 -172 152 -218 170 -33 13 -45 11 -203 -41 -167 -55 -315 -89 -448 -103 -54
-5 -75 -12 -93 -30 -43 -43 -47 -34 -39 110 5 110 4 135 -8 145 -24 20 -52 -3
-60 -46 -3 -21 -6 -93 -6 -159 0 -94 -3 -124 -14 -134 -23 -18 -39 -78 -31
-116 8 -44 56 -100 100 -115 36 -13 38 -17 50 -112 14 -104 116 -257 216 -324
32 -21 39 -32 39 -57 0 -50 -70 -88 -268 -147 -285 -84 -283 -82 -363 -485
-32 -165 -59 -316 -59 -337 0 -56 25 -96 73 -118 37 -16 68 -19 268 -19 241 0
259 3 244 48 -7 24 -33 32 -107 32 l-58 0 0 169 c0 93 -3 177 -6 185 -11 28
-41 38 -58 20 -13 -13 -16 -45 -16 -195 l0 -180 -122 3 c-171 4 -164 -22 -89
359 64 321 74 349 135 385 16 10 95 37 174 60 l144 43 12 -32 c7 -18 25 -67
41 -110 27 -76 45 -97 82 -97 10 0 49 -27 87 -59 104 -91 130 -90 237 3 37 33
73 56 86 56 35 0 58 30 83 106 13 38 29 83 36 101 l14 31 143 -42 c79 -23 157
-50 173 -60 61 -36 71 -64 135 -390 76 -382 83 -356 -91 -356 l-120 0 0 185
c0 166 -2 185 -18 194 -11 6 -24 6 -35 0 -15 -9 -17 -30 -17 -194 l0 -185
-344 0 c-200 0 -355 -4 -370 -10 -28 -10 -34 -38 -14 -58 9 -9 137 -12 518
-12 474 0 508 2 547 19 46 21 73 62 73 110 0 35 -105 589 -121 639 -13 41 -59
94 -104 122 -19 12 -108 43 -199 70 -196 58 -266 96 -266 146 0 26 8 36 49 63
110 70 191 203 212 343 10 67 14 77 34 82 32 8 82 52 100 87 22 42 18 91 -10
133 -25 36 -25 41 -25 229 0 181 -2 195 -24 242 -48 102 -141 165 -253 171
-45 2 -75 10 -107 29 -76 45 -155 67 -246 70 -47 2 -96 1 -110 -1z m484 -600
l86 -66 0 -187 c0 -249 -17 -307 -119 -414 -88 -92 -195 -133 -329 -125 -175
10 -319 125 -373 299 -16 50 -19 92 -19 234 l0 172 73 7 c117 12 296 53 428
100 68 24 134 44 145 45 13 0 58 -27 108 -65z m-834 -214 c0 -40 -4 -70 -10
-70 -21 0 -50 41 -50 70 0 29 29 70 50 70 6 0 10 -30 10 -70z m1040 50 c29
-29 30 -72 3 -102 -32 -36 -43 -22 -43 52 0 74 7 83 40 50z m-540 -705 c30 0
79 4 108 8 44 8 52 6 52 -6 0 -9 -23 -70 -51 -136 l-51 -121 -57 0 -58 0 -52
123 c-28 67 -51 128 -51 135 0 11 11 12 53 5 28 -4 77 -8 107 -8z m-167 -187
l36 -87 -32 -25 c-17 -14 -32 -24 -33 -23 -2 1 -18 46 -37 99 l-35 98 26 19
c15 11 30 17 33 13 3 -4 22 -46 42 -94z m401 -36 c-20 -53 -36 -98 -37 -99 -1
-1 -16 11 -34 25 l-31 27 40 92 40 93 29 -20 28 -21 -35 -97z m-139 -118 c19
-15 19 -17 -30 -60 -27 -24 -57 -44 -65 -43 -8 0 -37 20 -65 44 -49 43 -49 44
-30 59 28 21 162 21 190 0z"/>
</g>
</svg>
