<?xml version="1.0" standalone="no"?>
<!DOCTYPE svg PUBLIC "-//W3C//DTD SVG 20010904//EN"
 "http://www.w3.org/TR/2001/REC-SVG-20010904/DTD/svg10.dtd">
<svg version="1.0" xmlns="http://www.w3.org/2000/svg"
 width="256.000000pt" height="256.000000pt" viewBox="0 0 256.000000 256.000000"
 preserveAspectRatio="xMidYMid meet">

<g transform="translate(0.000000,256.000000) scale(0.100000,-0.100000)"
fill="#000000" stroke="none">
<path d="M1035 2548 c-75 -14 -206 -81 -268 -138 -68 -62 -123 -144 -156 -230
-22 -59 -25 -87 -32 -290 -8 -259 -15 -290 -91 -422 -64 -111 -89 -191 -95
-303 -9 -162 47 -317 158 -439 l59 -64 -36 -30 c-58 -48 -113 -129 -134 -201
-18 -57 -20 -89 -18 -240 3 -153 5 -175 20 -185 13 -8 23 -8 35 0 16 10 19 34
24 190 6 197 15 236 71 309 70 91 163 137 303 148 l71 5 159 -124 c88 -68 167
-124 175 -124 22 0 214 153 218 173 5 24 -16 47 -40 47 -11 0 -55 -28 -99 -61
-56 -44 -83 -59 -91 -52 -7 6 -64 49 -125 97 -62 48 -113 90 -113 92 0 2 15
23 33 47 19 24 40 65 47 91 11 41 16 47 34 41 54 -16 193 -17 260 -1 213 50
381 218 431 429 19 80 21 437 3 455 -7 7 -29 12 -50 12 -88 0 -150 56 -168
150 -16 84 -32 88 -127 26 -139 -89 -293 -152 -463 -187 -52 -11 -100 -25
-107 -31 -18 -14 -16 -43 3 -59 39 -32 334 52 511 146 l102 54 21 -44 c28 -58
88 -111 142 -126 24 -6 49 -13 56 -15 15 -4 16 -201 2 -314 -29 -218 -197
-388 -415 -419 -205 -29 -411 83 -500 271 -43 90 -54 169 -55 380 l0 158 -25
6 c-51 13 -55 -1 -55 -210 0 -214 11 -280 62 -383 38 -78 127 -177 202 -223
45 -28 56 -40 56 -62 0 -62 -48 -129 -104 -147 -17 -6 -65 -15 -106 -20 -41
-6 -86 -13 -100 -17 -20 -4 -35 3 -71 35 -110 96 -170 232 -170 383 0 117 17
176 86 298 81 143 86 170 95 430 9 258 20 307 95 409 70 95 150 151 264 185
78 23 444 23 522 0 118 -35 208 -101 274 -199 68 -103 77 -143 85 -400 9 -262
14 -284 99 -433 63 -110 82 -178 82 -290 0 -96 -22 -181 -67 -259 -29 -51 -31
-79 -4 -93 32 -17 54 2 94 83 95 194 85 409 -29 597 -76 126 -86 172 -95 430
-6 203 -9 231 -31 290 -69 182 -233 326 -416 365 -78 17 -416 19 -498 3z"/>
<path d="M1479 816 c-29 -63 112 -166 226 -166 102 0 218 -59 282 -144 58 -78
66 -114 72 -310 5 -156 8 -180 24 -190 12 -8 22 -8 35 0 15 10 17 32 20 184 2
136 -1 185 -14 229 -49 171 -192 289 -376 312 -115 14 -144 25 -180 70 -37 46
-72 52 -89 15z"/>
</g>
</svg>
