<svg id="Layer_1" data-name="Layer 1" xmlns="http://www.w3.org/2000/svg" viewBox="0 0 272.84 140.26"><defs><style>.cls-1,.cls-2,.cls-3{fill:#fff;stroke:#562c85;stroke-miterlimit:10;}.cls-1,.cls-2{stroke-width:8px;}.cls-1{opacity:0.6;}.cls-3{stroke-width:5px;}</style></defs><path class="cls-1" d="M173,362.34c-.42-74.83,58.53-135.83,131.67-136.23S437.38,286,437.8,360.87" transform="translate(-168.96 -222.1)"/><path class="cls-2" d="M173,362.34c-.42-74.83,58.53-135.83,131.67-136.24" transform="translate(-168.96 -222.1)"/><path class="cls-3" d="M261.8,337c.14-5.44,1.78-9.82,5.53-13.34,2.74-2.58,5.39-5.25,8.07-7.89,2.53-2.47,5-5,7.59-7.42,3-2.83,5.76-5.92,9.05-8.3a23.8,23.8,0,0,1,8.11-3.45,23.11,23.11,0,0,1,17,2.28,24.06,24.06,0,0,1,4.87,3.6c4.24,3.95,8.38,8,12.54,12.05,2.07,2,4.1,4,6.12,6.07,1.4,1.41,2.86,2.77,4.14,4.29,4.76,5.65,5.52,12.05,2.93,18.8-2.29,5.95-6.35,10.12-12.85,11.48-3.36.71-6.61,0-9.85-.74a52.61,52.61,0,0,1-6.93-1.8,39.74,39.74,0,0,0-15.41-1.86c-3.51.16-6.8,1.29-10.16,2.23a88.76,88.76,0,0,1-11.67,2.39A14.37,14.37,0,0,1,270.48,353a19.34,19.34,0,0,1-8.37-13.17C261.94,338.76,261.87,337.7,261.8,337Zm42.92-36.42c-1.14.21-3.14.4-5,.92a20.58,20.58,0,0,0-10,6.43c-2.47,2.76-5.27,5.23-7.93,7.81-3.59,3.48-7.17,7-10.8,10.41a14.79,14.79,0,0,0-3.73,5.25,14,14,0,0,0,1.89,14.43,12.51,12.51,0,0,0,10.91,5c4.61-.12,9-1.42,13.39-2.61,6.76-1.83,13.59-2.55,20.5-1.14,4.41.91,8.82,1.93,13.16,3.11,7.54,2.06,13.78-1.41,16.4-7.24a14.48,14.48,0,0,0-2.8-16.09c-1.67-1.65-3.29-3.33-5-5q-6.36-6.19-12.77-12.38c-.54-.52-1.15-1-1.64-1.56C317.19,303.1,311.86,300.86,304.72,300.61Z" transform="translate(-168.96 -222.1)"/><path class="cls-3" d="M301.48,265.38c0,5.95-1.27,11.56-5.15,16.23-2.81,3.37-6.24,5.74-11,5-3.28-.49-5.62-2.5-7.68-4.81-3.1-3.49-4.48-7.77-5.13-12.32A30.77,30.77,0,0,1,274.05,255a20,20,0,0,1,4.15-6.74,11.2,11.2,0,0,1,9.28-4c4.26.14,7.24,2.47,9.64,5.76,2.93,4,3.94,8.65,4.35,13.47C301.53,264.13,301.48,264.76,301.48,265.38Zm-24.79-.26a22,22,0,0,0,3.12,12.64,8.22,8.22,0,0,0,7,4.35,8.08,8.08,0,0,0,7.09-4.28c3.32-5.49,3.87-11.52,2.72-17.7-.66-3.54-1.83-6.95-4.76-9.4s-6.78-2.72-9.8-.09a13.63,13.63,0,0,0-3.28,4.26A21.07,21.07,0,0,0,276.69,265.12Z" transform="translate(-168.96 -222.1)"/><path class="cls-3" d="M309.45,265.37c.23-5.51,1.13-10.82,4.51-15.42,2.74-3.74,6.21-6,11-5.66,3.85.27,6.66,2.28,9,5.24,2.75,3.51,3.92,7.6,4.55,11.89A28.29,28.29,0,0,1,336,277.86a17.67,17.67,0,0,1-6.38,7.16,9.46,9.46,0,0,1-10.15.61,16.05,16.05,0,0,1-7.14-7.42A27.59,27.59,0,0,1,309.45,265.37Zm25-.12c-.14-1.49-.16-3-.44-4.48-.68-3.6-1.69-7.08-4.49-9.7a7.34,7.34,0,0,0-8.44-1.59,10.1,10.1,0,0,0-5.12,5.54c-3,7.58-3.11,15.09.95,22.39,1.55,2.79,3.85,4.57,7.06,4.68s5.6-1.67,7.21-4.27A22.93,22.93,0,0,0,334.42,265.25Z" transform="translate(-168.96 -222.1)"/><path class="cls-3" d="M269,295.42a18.44,18.44,0,0,1-4.12,12.4c-1.76,2.12-5.93,3.25-9.19,2.35s-5.27-3.09-7-5.64c-4.73-7.19-6.3-15-3.94-23.42a13.28,13.28,0,0,1,2.39-4.67c3-3.73,7.75-4.47,12-2.16,3.1,1.69,4.95,4.5,6.61,7.43A28.12,28.12,0,0,1,269,295.42Zm-3.89-.43-.36-.09a25.91,25.91,0,0,0-2.67-11,11.46,11.46,0,0,0-7.14-6.47,2.58,2.58,0,0,0-1.67,0,8.15,8.15,0,0,0-4.81,6.23,25.06,25.06,0,0,0,2.07,15.39,13.6,13.6,0,0,0,3.75,5.23c3.45,2.77,7.3,2,9-2.06A49,49,0,0,0,265.13,295Z" transform="translate(-168.96 -222.1)"/><path class="cls-3" d="M342,295.21c.1-6.31,1.62-12.12,5.66-17.18,2.64-3.3,5.74-5.37,10.09-5a8.45,8.45,0,0,1,6.83,4.65c3.92,7,3.17,14.09.69,21.3a20.64,20.64,0,0,1-6,8.92c-3.69,3.23-9.17,3.57-12.74.15A15.52,15.52,0,0,1,342,297.2C342,296.54,342,295.87,342,295.21Zm20.91-7c-.05-1,0-2.05-.17-3.05-.48-3.38-1.53-6.42-5.24-7.57a2.46,2.46,0,0,0-1.38-.13,11.63,11.63,0,0,0-7.12,6.17,24.4,24.4,0,0,0-2.66,13.12,17.32,17.32,0,0,0,1.54,6c1.7,3.51,5.41,4.27,8.48,1.84a13.15,13.15,0,0,0,3.28-3.77A23.76,23.76,0,0,0,362.91,288.19Z" transform="translate(-168.96 -222.1)"/></svg>